<svg width="58" height="48" viewBox="0 0 58 48" fill="none" xmlns="http://www.w3.org/2000/svg">
<line x1="50.1856" y1="24.4005" x2="7" y2="24.4005" stroke="black" stroke-width="2"/>
<path d="M48.7013 9.00013L43.1245 10.4944L47.207 14.5769L48.7013 9.00013ZM45.5193 12.1821L45.1657 11.8286L33.1449 23.8494L33.4985 24.2029L33.852 24.5565L45.8728 12.5357L45.5193 12.1821Z" fill="black"/>
<path d="M24.9942 24.5079L10.145 9.6587" stroke="black"/>
<line x1="28.5919" y1="25.4005" x2="28.5919" y2="43.4005" stroke="black"/>
<path d="M8.07955 6H7.02273C6.96023 5.69602 6.85085 5.42898 6.6946 5.19886C6.54119 4.96875 6.35369 4.77557 6.1321 4.61932C5.91335 4.46023 5.67045 4.34091 5.40341 4.26136C5.13636 4.18182 4.85795 4.14205 4.56818 4.14205C4.03977 4.14205 3.56108 4.27557 3.1321 4.54261C2.70597 4.80966 2.36648 5.20312 2.11364 5.72301C1.86364 6.2429 1.73864 6.88068 1.73864 7.63636C1.73864 8.39205 1.86364 9.02983 2.11364 9.54972C2.36648 10.0696 2.70597 10.4631 3.1321 10.7301C3.56108 10.9972 4.03977 11.1307 4.56818 11.1307C4.85795 11.1307 5.13636 11.0909 5.40341 11.0114C5.67045 10.9318 5.91335 10.8139 6.1321 10.6577C6.35369 10.4986 6.54119 10.304 6.6946 10.0739C6.85085 9.84091 6.96023 9.57386 7.02273 9.27273H8.07955C8 9.71875 7.85511 10.1179 7.64489 10.4702C7.43466 10.8224 7.1733 11.1222 6.8608 11.3693C6.5483 11.6136 6.19744 11.7997 5.80824 11.9276C5.42188 12.0554 5.00852 12.1193 4.56818 12.1193C3.82386 12.1193 3.16193 11.9375 2.58239 11.5739C2.00284 11.2102 1.54688 10.6932 1.21449 10.0227C0.882102 9.35227 0.715909 8.55682 0.715909 7.63636C0.715909 6.71591 0.882102 5.92045 1.21449 5.25C1.54688 4.57955 2.00284 4.0625 2.58239 3.69886C3.16193 3.33523 3.82386 3.15341 4.56818 3.15341C5.00852 3.15341 5.42188 3.21733 5.80824 3.34517C6.19744 3.47301 6.5483 3.66051 6.8608 3.90767C7.1733 4.15199 7.43466 4.45028 7.64489 4.80256C7.85511 5.15199 8 5.55114 8.07955 6Z" fill="black"/>
<path d="M51.0568 13V4.27273H56.3239V5.21023H52.1136V8.15909H56.0511V9.09659H52.1136V12.0625H56.392V13H51.0568Z" fill="black"/>
<path d="M32.0568 45V36.2727H35.108C35.7159 36.2727 36.2173 36.3778 36.6122 36.5881C37.0071 36.7955 37.3011 37.0753 37.4943 37.4276C37.6875 37.777 37.7841 38.1648 37.7841 38.5909C37.7841 38.9659 37.7173 39.2756 37.5838 39.5199C37.4531 39.7642 37.2798 39.9574 37.0639 40.0994C36.8509 40.2415 36.6193 40.3466 36.3693 40.4148V40.5C36.6364 40.517 36.9048 40.6108 37.1747 40.7812C37.4446 40.9517 37.6705 41.196 37.8523 41.5142C38.0341 41.8324 38.125 42.2216 38.125 42.6818C38.125 43.1193 38.0256 43.5128 37.8267 43.8622C37.6278 44.2116 37.3139 44.4886 36.8849 44.6932C36.456 44.8977 35.8977 45 35.2102 45H32.0568ZM33.1136 44.0625H35.2102C35.9006 44.0625 36.3906 43.929 36.6804 43.6619C36.973 43.392 37.1193 43.0653 37.1193 42.6818C37.1193 42.3864 37.044 42.1136 36.8935 41.8636C36.7429 41.6108 36.5284 41.4091 36.25 41.2585C35.9716 41.1051 35.642 41.0284 35.2614 41.0284H33.1136V44.0625ZM33.1136 40.108H35.0739C35.392 40.108 35.679 40.0455 35.9347 39.9205C36.1932 39.7955 36.3977 39.6193 36.5483 39.392C36.7017 39.1648 36.7784 38.8977 36.7784 38.5909C36.7784 38.2074 36.6449 37.8821 36.3778 37.6151C36.1108 37.3452 35.6875 37.2102 35.108 37.2102H33.1136V40.108Z" fill="black"/>
</svg>
