<?xml version="1.0" encoding="UTF-8"?>
<svg id="Vrstva_1" xmlns="http://www.w3.org/2000/svg" version="1.1" viewBox="0 0 100 100">
  <!-- Generator: Adobe Illustrator 29.1.0, SVG Export Plug-In . SVG Version: 2.1.0 Build 142)  -->
  <defs>
    <style>
      .st0, .st1 {
        opacity: .6;
      }

      .st0, .st1, .st2, .st3, .st4, .st5, .st6, .st7 {
        fill: none;
      }

      .st0, .st1, .st2, .st3, .st4, .st6, .st7 {
        stroke-linecap: round;
      }

      .st0, .st1, .st2, .st3, .st6, .st7 {
        stroke-miterlimit: 10;
      }

      .st0, .st1, .st2, .st6 {
        stroke: #fff;
      }

      .st0, .st8, .st5 {
        stroke-width: 7.7574px;
      }

      .st1 {
        stroke-width: 3.8787px;
      }

      .st2 {
        opacity: .8;
        stroke-width: 22.2839px;
      }

      .st9 {
        fill: #f6af34;
      }

      .st8 {
        fill: #fd0;
        stroke: #ff8158;
      }

      .st8, .st4, .st5 {
        stroke-linejoin: round;
      }

      .st3 {
        stroke: #878787;
      }

      .st3, .st6 {
        stroke-width: 1.9394px;
      }

      .st10 {
        fill: #ccc;
      }

      .st4 {
        stroke: #ad0404;
        stroke-width: 8px;
      }

      .st11 {
        fill: #575756;
      }

      .st12 {
        fill: #fff;
      }

      .st13 {
        fill: #59a2ff;
      }

      .st5 {
        stroke: #f6af34;
      }

      .st7 {
        opacity: .5;
        stroke: #000;
        stroke-width: 12.2663px;
      }

      .st14 {
        fill: #b2b2b2;
      }

      .st15 {
        fill: #216de8;
      }
    </style>
  </defs>
  <g>
    <path class="st13" d="M-1.2212,18.0239h139.4502c8.4304,0,15.2749,6.8445,15.2749,15.2749v139.4512c0,8.4302-6.8442,15.2744-15.2744,15.2744H-1.2207c-8.4307,0-15.2754-6.8447-15.2754-15.2754V33.2988c0-8.4304,6.8445-15.2749,15.2749-15.2749Z"/>
    <path class="st15" d="M138.2294,19.524c7.5954,0,13.7747,6.1793,13.7747,13.7747v139.4505c0,7.5954-6.1793,13.7747-13.7747,13.7747H-1.2212c-7.5954,0-13.7747-6.1793-13.7747-13.7747V33.2987c0-7.5954,6.1793-13.7747,13.7747-13.7747h139.4506M138.2294,16.524H-1.2212c-9.2644,0-16.7747,7.5103-16.7747,16.7747v139.4505c0,9.2644,7.5103,16.7747,16.7747,16.7747h139.4506c9.2644,0,16.7747-7.5103,16.7747-16.7747V33.2987c0-9.2644-7.5103-16.7747-16.7747-16.7747h0Z"/>
  </g>
  <g>
    <rect class="st12" x="-16.4961" y="3.0239" width="170" height="170.0005" rx="15.2749" ry="15.2749"/>
    <path class="st15" d="M138.2294,4.524c7.5954,0,13.7747,6.1793,13.7747,13.7747v139.4505c0,7.5954-6.1793,13.7747-13.7747,13.7747H-1.2212c-7.5954,0-13.7747-6.1793-13.7747-13.7747V18.2987c0-7.5954,6.1793-13.7747,13.7747-13.7747h139.4506M138.2294,1.524H-1.2212c-9.2644,0-16.7747,7.5103-16.7747,16.7747v139.4505c0,9.2644,7.5103,16.7747,16.7747,16.7747h139.4506c9.2644,0,16.7747-7.5103,16.7747-16.7747V18.2987c0-9.2644-7.5103-16.7747-16.7747-16.7747h0Z"/>
  </g>
  <line class="st4" x1="41.0041" y1="84.1296" x2="-15.9959" y2="84.1296"/>
  <line class="st4" x1="153.0041" y1="84.1296" x2="92.0041" y2="84.1296"/>
  <ellipse class="st10" cx="67.8572" cy="96.9015" rx="31.8531" ry="14.3401"/>
  <g>
    <g>
      <g>
        <g>
          <path class="st8" d="M117.4356-11.0902c0-27.2971-22.1284-49.4258-49.4255-49.4258S18.5841-38.3874,18.5841-11.0902c0,.8614.0231,1.7177.0665,2.568,1.3634,30.0455,26.285,43.8227,26.285,70.9505h46.1486c0-27.1278,24.9216-40.905,26.2854-70.9505.0434-.8503.066-1.7066.066-2.568Z"/>
          <path class="st14" d="M97.0796,47.9783c-1.2383,4.3038-13.015,8.5387-29.0695,8.5387s-27.1618-4.227-29.07-8.5387l4.3581,47.6594h0c0,4.9631,11.0641,8.9859,24.7119,8.9859s24.7109-4.0228,24.7109-8.9859v-.0011l4.3587-47.6584Z"/>
        </g>
        <path class="st2" d="M35.1811-10.4018c0-19.5577,15.8549-35.4126,35.4124-35.4126"/>
        <ellipse class="st14" cx="68.0482" cy="96.0817" rx="23.5676" ry="7.9899"/>
      </g>
      <ellipse class="st9" cx="68.0482" cy="46.6063" rx="29.2334" ry="9.9107"/>
      <g>
        <path class="st5" d="M117.4356-11.0902c0-27.2971-22.1284-49.4258-49.4255-49.4258S18.5841-38.3874,18.5841-11.0902c0,.8614.0231,1.7177.0665,2.568,1.3634,30.0455,26.285,43.8227,26.285,70.9505h46.1486c0-27.1278,24.9216-40.905,26.2854-70.9505.0434-.8503.066-1.7066.066-2.568Z"/>
        <path class="st11" d="M97.0796,47.9783c-1.2383,4.3038-13.015,8.5387-29.0695,8.5387s-27.1618-4.227-29.07-8.5387l4.3581,47.6594h0c0,4.9631,11.0641,8.9859,24.7119,8.9859s24.7109-4.0228,24.7109-8.9859v-.0011l4.3587-47.6584Z"/>
      </g>
      <polyline class="st3" points="76.0516 45.776 75.057 14.6831 85.3768 -22.0358"/>
      <polyline class="st3" points="61.5571 45.776 62.5518 14.6831 52.2319 -22.0358"/>
      <path class="st6" d="M72.1683,8.3695c3.3068,1.2049,5.7068,4.3173,5.8443,8.031l1.088,29.3755"/>
      <path class="st6" d="M58.8249,45.776l1.4132-29.4723c.1792-3.7365,2.6455-6.8433,6.006-7.9926"/>
      <path class="st6" d="M66.2442,9.3622V-7.6823c0-1.6359,1.3261-2.962,2.962-2.962h0c1.6359,0,2.962,1.3261,2.962,2.962V9.3622"/>
      <line class="st1" x1="68.5518" y1="9.3622" x2="68.5518" y2="-7.382"/>
      <line class="st0" x1="62.3777" y1="43.6397" x2="63.7029" y2="16.1559"/>
      <path class="st6" d="M52.2319-23.2003s8.9056,2.6898,14.0123.6725c0,0,7.2735,3.4497,12.2049.492,0,0,3.2007,1.9836,6.7749.5436"/>
      <line class="st6" x1="67.0871" y1="-9.7483" x2="66.2442" y2="-22.5278"/>
      <line class="st6" x1="71.5912" y1="-9.4335" x2="78.4491" y2="-22.0358"/>
    </g>
    <line class="st7" x1="85.6229" y1="63.8562" x2="83.3669" y2="93.5064"/>
  </g>
</svg>