<?xml version="1.0" encoding="UTF-8"?>
<svg id="Vrstva_1" xmlns="http://www.w3.org/2000/svg" version="1.1" viewBox="0 0 100 100">
  <!-- Generator: Adobe Illustrator 29.1.0, SVG Export Plug-In . SVG Version: 2.1.0 Build 142)  -->
  <defs>
    <style>
      .st0 {
        fill: #3c3c3b;
      }

      .st1 {
        stroke: #ccc;
      }

      .st1, .st2, .st3, .st4, .st5, .st6, .st7, .st8 {
        fill: none;
        stroke-linecap: round;
        stroke-linejoin: round;
      }

      .st1, .st4, .st6, .st7 {
        stroke-width: 8.6294px;
      }

      .st9 {
        fill: #f03b50;
      }

      .st2 {
        opacity: .25;
        stroke: #f6f6f6;
        stroke-width: 17.2587px;
      }

      .st10 {
        fill: #ccc;
      }

      .st3 {
        stroke: #ad0404;
        stroke-width: 8px;
      }

      .st4 {
        stroke: #ff8158;
      }

      .st11 {
        fill: #575756;
      }

      .st12 {
        fill: #fff;
      }

      .st13 {
        fill: #813b50;
      }

      .st5 {
        stroke: #f03b50;
        stroke-width: 7.8625px;
      }

      .st6 {
        stroke: #813b50;
      }

      .st14 {
        fill: #59a2ff;
      }

      .st7 {
        stroke: #216de8;
      }

      .st15 {
        fill: #fd0;
      }

      .st8 {
        stroke: #fd0;
        stroke-width: 5.7529px;
      }

      .st16 {
        fill: #216de8;
      }
    </style>
  </defs>
  <g>
    <path class="st14" d="M-8.7212-14.7598h139.4502c8.4304,0,15.2749,6.8445,15.2749,15.2749v139.4507c0,8.4302-6.8442,15.2744-15.2744,15.2744H-8.7217c-8.4302,0-15.2744-6.8442-15.2744-15.2744V.5151c0-8.4304,6.8445-15.2749,15.2749-15.2749Z"/>
    <path class="st16" d="M130.7294-13.2596c7.5954,0,13.7747,6.1793,13.7747,13.7747v139.4505c0,7.5954-6.1793,13.7747-13.7747,13.7747H-8.7212c-7.5954,0-13.7747-6.1793-13.7747-13.7747V.5151c0-7.5954,6.1793-13.7747,13.7747-13.7747h139.4505M130.7294-16.2596H-8.7212c-9.2644,0-16.7747,7.5103-16.7747,16.7747v139.4505c0,9.2644,7.5103,16.7747,16.7747,16.7747h139.4505c9.2645,0,16.7747-7.5103,16.7747-16.7747V.5151c0-9.2644-7.5103-16.7747-16.7747-16.7747h0Z"/>
  </g>
  <g>
    <path class="st12" d="M-8.7212-29.7598h139.4502c8.4304,0,15.2749,6.8445,15.2749,15.2749V124.9658c0,8.4302-6.8442,15.2744-15.2744,15.2744H-8.7217c-8.4302,0-15.2744-6.8442-15.2744-15.2744V-14.4849c0-8.4304,6.8445-15.2749,15.2749-15.2749Z"/>
    <path class="st16" d="M130.7294-28.2596c7.5954,0,13.7747,6.1793,13.7747,13.7747V124.9656c0,7.5954-6.1793,13.7747-13.7747,13.7747H-8.7212c-7.5954,0-13.7747-6.1793-13.7747-13.7747V-14.4849c0-7.5954,6.1793-13.7747,13.7747-13.7747h139.4505M130.7294-31.2596H-8.7212c-9.2644,0-16.7747,7.5103-16.7747,16.7747V124.9656c0,9.2644,7.5103,16.7747,16.7747,16.7747h139.4505c9.2645,0,16.7747-7.5103,16.7747-16.7747V-14.4849c0-9.2644-7.5103-16.7747-16.7747-16.7747h0Z"/>
  </g>
  <path class="st3" d="M145.5041,51.346c-19,0-18-47-38-46.6057"/>
  <path class="st10" d="M-16.1624,100.6891l49.4176,19.1176c8.6023,3.186,18.0528,3.2347,26.6875.1375l79.4715-28.1474c4.6291-1.6604,4.4671-8.262-.2378-9.6935l-64.3135-21.0036L-15.9876,91.0492c-4.589,1.5128-4.7059,7.9617-.1748,9.6398Z"/>
  <g>
    <path class="st5" d="M105.7323-28.7543"/>
    <path class="st0" d="M130.1092,76.7973c.0474,2.3935-1.2832,4.8144-4.0215,5.7569l-56.5976,19.4806c-10.9783,3.7787-22.8859,3.8956-33.9363.3331l-42.9076-14.6482c-2.7295-.88-4.1115-3.2439-4.1335-5.6204v8.0767c.022,2.3765,1.4039,4.7405,4.1335,5.6204l42.9076,14.6482c11.0504,3.5625,22.958,3.4456,33.9363-.3331l56.5976-19.4806c2.7383-.9425,4.0689-3.3633,4.0215-5.7569v-8.0767Z"/>
    <path class="st11" d="M-7.4489,76.4286l56.8288-19.3799c10.5933-3.6126,22.051-3.8231,32.7698-.602l43.7133,14.7866c5.5469,1.6669,5.7013,9.4651.2246,11.3501l-56.5976,19.4806c-10.9783,3.7787-22.8859,3.8956-33.9363.3331l-42.9076-14.6482c-5.4632-1.7612-5.5279-9.4675-.095-11.3202Z"/>
    <path class="st0" d="M-3.9692,73.1688l53.8178-18.3531c10.032-3.4212,20.8826-3.6205,31.0336-.5701l41.3972,14.0031c5.253,1.5785,5.3992,8.9636.2127,10.7488l-53.5988,18.4485c-10.3966,3.5785-21.6733,3.6892-32.1382.3154L-3.8792,83.8893c-5.1737-1.6679-5.235-8.9659-.09-10.7205Z"/>
    <polyline class="st0" points="-7.7939 78.436 -7.7939 15.9689 126.268 10.0572 126.268 74.166 -7.7939 79.9093"/>
    <line class="st2" x1="53.1383" y1="48.8557" x2="53.1383" y2="90.1241"/>
    <path class="st16" d="M126.3005,5.3019c.0449,2.2667-1.2152,4.5593-3.8084,5.4519l-53.5988,18.4485c-10.3966,3.5785-21.6733,3.6892-32.1382.3154L-3.8792,15.6456c-2.5849-.8333-3.8936-3.0721-3.9145-5.3226v7.6488c.0208,2.2506,1.3296,4.4893,3.9145,5.3226l40.6342,13.8721c10.4649,3.3737,21.7416,3.263,32.1382-.3154l53.5988-18.4485c2.5932-.8926,3.8533-3.1851,3.8084-5.4519v-7.6488Z"/>
    <path class="st14" d="M-3.9692,4.9528L49.8486-13.4003c10.032-3.4212,20.8826-3.6205,31.0336-.5701L122.2793.0327c5.253,1.5785,5.3992,8.9636.2127,10.7488l-53.5988,18.4485c-10.3966,3.5785-21.6733,3.6892-32.1382.3154L-3.8792,15.6733c-5.1737-1.6679-5.235-8.9659-.09-10.7205Z"/>
    <path class="st7" d="M35.3498,17.9388l-21.6188-7.3801c-1.3306-.4542-1.3303-2.3361.0004-2.7899L52.6624-5.5079c3.8939-1.3276,7.9544-2.0008,12.0687-2.0008,3.6153,0,7.2044.5224,10.669,1.5542l11.5418,3.9043"/>
    <polygon class="st15" points="104.5042 46.9206 95.1648 50.6231 102.4385 31.9971 92.0627 36.1108 83.7833 62.1681 90.6671 59.4392 82.6138 84.8681 104.5042 46.9206"/>
    <line class="st7" x1="81.0315" y1=".0102" x2="90.0603" y2="-3.0689"/>
    <line class="st7" x1="29.9797" y1="19.7701" x2="39.0085" y2="16.6911"/>
    <path class="st1" d="M35.2415,22.5128V-4.7113c0-4.4249,2.8103-8.3614,6.9953-9.7986l36.2066-12.4336c4.1643-1.4301,8.4985,1.6642,8.4985,6.0672V1.408"/>
    <polygon class="st14" points="27.6454 24.1758 44.221 18.4612 43.2765 27.9209 30.4866 27.1198 27.6454 24.1758"/>
    <polygon class="st14" points="79.0772 4.2526 97.0328 -1.8583 97.0328 6.8709 80.0441 11.0979 79.0772 4.2526"/>
    <path class="st6" d="M58.9433,16.7925c-8.5447-.5827-12.4758.1779-17.0894,3.6315l-31.809,5.8857"/>
    <path class="st8" d="M59.3116,16.1296c-7.6012-.5184-9.9002-.8249-14.0043,2.2473"/>
    <g>
      <ellipse class="st11" cx="53.1383" cy="25.6664" rx="9.5027" ry="3.2216"/>
      <path class="st0" d="M60.2843,24.8674c0,1.338-3.1994,2.4226-7.146,2.4226s-7.146-1.0847-7.146-2.4226v-12.1782c0-1.338,3.1994-2.4226,7.146-2.4226s7.146,1.0847,7.146,2.4226v12.1782Z"/>
      <ellipse class="st11" cx="53.1383" cy="12.6893" rx="7.146" ry="2.4226"/>
    </g>
    <path class="st8" d="M60.7625,17.9456c-4.8066,3.0939-11.9336,1.9623-15.4553,1.6451"/>
    <line class="st6" x1="137.0041" y1="-15.7596" x2="116.9456" y2="-1.1518"/>
    <path class="st6" d="M99.2508-.3348c6.3932-2.8652,10.485-3.4225,17.6948-.817"/>
    <path class="st8" d="M99.8396-.8156c5.3479-3.1,9.5385-3.431,14.3957-1.4886"/>
    <g>
      <ellipse class="st9" cx="107.2082" cy="7.045" rx="9.5027" ry="3.2216"/>
      <path class="st13" d="M114.3542,6.2461c0,1.338-3.1994,2.4226-7.146,2.4226s-7.146-1.0847-7.146-2.4226V-5.9321c0-1.338,3.1994-2.4226,7.146-2.4226s7.146,1.0847,7.146,2.4226V6.2461Z"/>
      <ellipse class="st9" cx="107.2082" cy="-5.9321" rx="7.146" ry="2.4226"/>
    </g>
    <path class="st8" d="M114.9295-1.079c-2.9753,2.8094-10.4415,2.6196-15.5304.6145"/>
    <path class="st4" d="M116.8378.4657c-4.8329,3.1394-10.8893,3.3136-17.557.8461"/>
    <line class="st4" x1="116.3743" y1=".6094" x2="139.0041" y2="-1.7596"/>
  </g>
  <path class="st3" d="M44.5041,21.7404C11.0041,55.2404-23.4959,51.346-23.4959,51.346"/>
  <path class="st4" d="M61.683,19.3601c-4.6136,3.4536-8.9173,2.5936-17.462,2.0109l-23.5686,15.9114"/>
</svg>