<?xml version="1.0" encoding="UTF-8"?>
<svg id="Vrstva_1" xmlns="http://www.w3.org/2000/svg" xmlns:xlink="http://www.w3.org/1999/xlink" version="1.1" viewBox="0 0 100 100">
  <!-- Generator: Adobe Illustrator 29.1.0, SVG Export Plug-In . SVG Version: 2.1.0 Build 142)  -->
  <defs>
    <style>
      .st0, .st1, .st2, .st3, .st4, .st5, .st6, .st7 {
        fill: none;
      }

      .st8 {
        fill: #3c3c3b;
      }

      .st9 {
        fill: #2b2b2b;
      }

      .st10 {
        fill: #f6f6f6;
      }

      .st1 {
        stroke-miterlimit: 10;
      }

      .st1, .st3 {
        stroke: #575756;
        stroke-width: 6.8992px;
      }

      .st11 {
        fill: #1d1d1b;
      }

      .st12 {
        fill: #ccc;
      }

      .st13 {
        isolation: isolate;
      }

      .st2 {
        stroke: #ad0404;
        stroke-width: 8px;
      }

      .st2, .st3, .st14, .st4, .st5, .st6, .st7 {
        stroke-linecap: round;
        stroke-linejoin: round;
      }

      .st15 {
        clip-path: url(#clippath-1);
      }

      .st16 {
        fill: #575756;
      }

      .st17 {
        fill: #fff;
      }

      .st14 {
        fill: #fd0;
        stroke: #2b2b2b;
        stroke-width: 11.9618px;
      }

      .st18 {
        fill: #59a2ff;
      }

      .st4 {
        opacity: .45;
        stroke: #fff;
        stroke-width: 3.7227px;
      }

      .st5 {
        stroke-width: 1.2409px;
      }

      .st5, .st6 {
        stroke: #1d1d1b;
      }

      .st6, .st7 {
        stroke-width: 2.4818px;
      }

      .st19 {
        clip-path: url(#clippath);
      }

      .st7 {
        stroke: #f03b50;
      }

      .st20 {
        fill: #216de8;
      }
    </style>
    <clipPath id="clippath">
      <path class="st8" d="M86.2604,60.7347c-11.1616,3.8433-20.1921,18.6306-20.1593,33.0086.0329,14.3963,9.1166,22.9455,20.2782,19.1022,11.1616-3.8433,20.1921-18.6297,20.1592-33.026-.0328-14.3781-9.1166-22.9281-20.2782-19.0849"/>
    </clipPath>
    <clipPath id="clippath-1">
      <polygon class="st0" points="88.793 34.3795 88.7904 21.0443 78.512 24.3353 78.5145 37.6705 88.793 34.3795"/>
    </clipPath>
  </defs>
  <g>
    <path class="st18" d="M-1.2212-3.3086h139.4502c8.4304,0,15.2749,6.8445,15.2749,15.2749v139.4507c0,8.4302-6.8442,15.2744-15.2744,15.2744H-1.2217c-8.4302,0-15.2744-6.8442-15.2744-15.2744V11.9663C-16.4961,3.5359-9.6516-3.3086-1.2212-3.3086Z"/>
    <path class="st20" d="M138.2294-1.8084c7.5954,0,13.7747,6.1793,13.7747,13.7747v139.4505c0,7.5954-6.1793,13.7747-13.7747,13.7747H-1.2212c-7.5954,0-13.7747-6.1793-13.7747-13.7747V11.9663C-14.9959,4.3709-8.8166-1.8084-1.2212-1.8084h139.4506M138.2294-4.8084H-1.2212c-9.2644,0-16.7747,7.5103-16.7747,16.7747v139.4505c0,9.2644,7.5103,16.7747,16.7747,16.7747h139.4506c9.2644,0,16.7747-7.5103,16.7747-16.7747V11.9663c0-9.2644-7.5103-16.7747-16.7747-16.7747h0Z"/>
  </g>
  <g>
    <path class="st17" d="M-1.2212-18.3086h139.4502c8.4304,0,15.2749,6.8445,15.2749,15.2749v139.4507c0,8.4302-6.8442,15.2744-15.2744,15.2744H-1.2217c-8.4302,0-15.2744-6.8442-15.2744-15.2744V-3.0337c0-8.4304,6.8445-15.2749,15.2749-15.2749Z"/>
    <path class="st20" d="M138.2294-16.8084c7.5954,0,13.7747,6.1793,13.7747,13.7747v139.4505c0,7.5954-6.1793,13.7747-13.7747,13.7747H-1.2212c-7.5954,0-13.7747-6.1793-13.7747-13.7747V-3.0337c0-7.5954,6.1793-13.7747,13.7747-13.7747h139.4506M138.2294-19.8084H-1.2212c-9.2644,0-16.7747,7.5103-16.7747,16.7747v139.4505c0,9.2644,7.5103,16.7747,16.7747,16.7747h139.4506c9.2644,0,16.7747-7.5103,16.7747-16.7747V-3.0337c0-9.2644-7.5103-16.7747-16.7747-16.7747h0Z"/>
  </g>
  <line class="st2" x1="153.0041" y1="62.7972" x2="92.0041" y2="62.7972"/>
  <path class="st12" d="M-3.6624,129.1403l35.4176,13.1176c8.6023,3.186,18.0528,3.2347,26.6875.1375l78.4715-28.1474c4.6291-1.6604,4.4671-8.262-.2378-9.6935l-49.3135-15.0036L-3.4876,119.5004c-4.589,1.5128-4.7059,7.9617-.1748,9.6398Z"/>
  <g>
    <path class="st20" d="M27.1771-23.1804l56.5247-18.7386c3.3107-1.1434,6.6663-.9695,9.6092.1581l.0067-.0145,25.2338,8.7064-28.5241,61.9755-36.072,78.3776-12.3437,26.8203-25.4537-8.7827.0121-.0248c-5.4605-1.8438-9.6268-6.9589-9.6268-13.3526V5.7752c0-13.0648,8.2853-24.6917,20.6339-28.9555Z"/>
    <path class="st18" d="M51.0372,134.1776l56.5247-18.7386c12.3488-4.2643,20.6343-15.8911,20.6343-28.9555V-19.6861c0-9.686-9.5432-16.4867-18.6987-13.3251L52.9728-14.2726c-12.3488,4.2643-20.6343,15.8911-20.6343,28.9555v106.1696c0,9.686,9.5432,16.4867,18.6987,13.3251Z"/>
    <path class="st10" d="M105.151,45.3667c6.3027-2.2104,10.5308-8.1702,10.5308-14.8546V-8.1896c0-5.1179-5.0096-8.7348-9.8675-7.1244L60.1363-.1714c-6.3027,2.2104-10.5308,8.1702-10.5308,14.8546v38.7017c0,5.1179,5.0096,8.7348,9.8675,7.1244l45.6781-15.1426Z"/>
    <g>
      <path class="st8" d="M86.2604,60.7347c-11.1616,3.8433-20.1921,18.6306-20.1593,33.0086.0329,14.3963,9.1166,22.9455,20.2782,19.1022,11.1616-3.8433,20.1921-18.6297,20.1592-33.026-.0328-14.3781-9.1166-22.9281-20.2782-19.0849"/>
      <g class="st19">
        <path class="st16" d="M80.7902,58.5237c-11.1616,3.8433-20.1921,18.6306-20.1593,33.0086.0329,14.3963,9.1166,22.9455,20.2782,19.1022,11.1616-3.8433,20.1921-18.6297,20.1592-33.026-.0328-14.3781-9.1166-22.9281-20.2782-19.0849"/>
        <line class="st14" x1="84.586" y1="63.1432" x2="84.586" y2="106.7911"/>
      </g>
    </g>
    <path class="st1" d="M21.5083,69.5434c-.6383.1398-1.3427.0967-2.0827-.1581-2.8717-.9888-5.1951-4.7931-5.1866-8.497.0027-1.1898.2463-2.2244.6711-3.0478"/>
    <path class="st8" d="M19.5963,57.5187c1.8348.7339,3.3192,3.5578,3.3138,6.3036-.0054,2.7492-1.4986,4.3818-3.3333,3.6479s-3.3192-3.5577-3.3138-6.3069c.0054-2.7457,1.4986-4.3785,3.3333-3.6446"/>
    <path class="st3" d="M14.9101,57.8413c.896-1.7366,2.598-2.5332,4.5461-1.8624"/>
    <path class="st3" d="M19.4562,55.9781c2.8717.9888,5.1951,4.7933,5.1866,8.4925-.0063,2.7495-1.2957,4.67-3.1345,5.0727"/>
    <path class="st4" d="M24.5572,63.2075c-.4374-3.4802-2.88-6.7881-5.5685-7.3969-.6091-.0691-1.9975-.31-3.1974.8488"/>
    <g>
      <path class="st6" d="M107.8153,13.5219l2.4011-4.2081c-6.6683-7.9044-15.8125-11.1173-24.2154-10.3199C75.6304-.0223,63.3417,7.6798,54.9779,24.2772l4.4222,2.9295"/>
      <line class="st6" x1="82.3739" y1="-.3981" x2="82.3739" y2="6.2282"/>
    </g>
    <g class="st13">
      <g class="st15">
        <path class="st11" d="M85.2423,30.1818l-3.037.9724,1.5057-5.4779.0552-.0177,1.4761,4.5232M82.5666,23.0371l-4.052,14.6334,2.0982-.6718.9933-3.6205,4.2361-1.3563.963,2.9941,1.9878-.6365-4.0256-12.0471-2.2008.7047"/>
      </g>
    </g>
    <g>
      <line class="st7" x1="83.854" y1="52.4269" x2="93.1752" y2="12.4678"/>
      <path class="st9" d="M83.8198,44.6376c3.441-1.1848,6.2413,1.451,6.2515,5.8836l-12.4663,4.2925c-.0101-4.4325,2.7738-8.9912,6.2148-10.1761"/>
    </g>
    <line class="st5" x1="99.4106" y1="1.1721" x2="97.5349" y2="7.4761"/>
    <line class="st5" x1="64.6293" y1="10.3604" x2="66.8551" y2="15.3821"/>
  </g>
  <line class="st2" x1="18.0041" y1="62.7972" x2="-15.9959" y2="62.7972"/>
</svg>