<?xml version="1.0" encoding="UTF-8"?>
<svg id="Vrstva_1" xmlns="http://www.w3.org/2000/svg" version="1.1" viewBox="0 0 100 100">
  <!-- Generator: Adobe Illustrator 29.1.0, SVG Export Plug-In . SVG Version: 2.1.0 Build 142)  -->
  <defs>
    <style>
      .st0 {
        fill: #fd0;
      }

      .st0, .st1, .st2, .st3, .st4, .st5, .st6, .st7, .st8, .st9, .st10 {
        stroke-linecap: round;
      }

      .st0, .st2, .st3, .st4, .st5, .st7, .st8, .st9 {
        stroke-linejoin: round;
      }

      .st0, .st2, .st4, .st5, .st7, .st9 {
        stroke-width: 3.3493px;
      }

      .st0, .st4, .st6, .st7 {
        stroke: #fd0;
      }

      .st1 {
        stroke-width: 6.1404px;
      }

      .st1, .st3 {
        stroke: #ad0404;
      }

      .st1, .st3, .st6, .st7, .st8, .st10 {
        fill: none;
      }

      .st1, .st6, .st10 {
        stroke-miterlimit: 10;
      }

      .st11 {
        fill: #ccc;
      }

      .st2 {
        fill: #575756;
        stroke: #575756;
      }

      .st3 {
        stroke-width: 8px;
      }

      .st4 {
        fill: #f6af34;
      }

      .st5 {
        fill: #f03b50;
      }

      .st5, .st9 {
        stroke: #f03b50;
      }

      .st6 {
        stroke-dasharray: 0 4.4658;
        stroke-width: 1.6747px;
      }

      .st12 {
        fill: #fff;
      }

      .st13 {
        fill: #59a2ff;
      }

      .st8 {
        opacity: .7;
        stroke: #f6f6f6;
        stroke-width: 15.072px;
      }

      .st9 {
        fill: #ff8158;
      }

      .st10 {
        stroke: #ff8158;
        stroke-width: 4.3073px;
      }

      .st14 {
        fill: #216de8;
      }
    </style>
  </defs>
  <g>
    <rect class="st13" x="-49.1431" y="-15.5356" width="170.0005" height="170.0005" rx="15.2749" ry="15.2749"/>
    <path class="st14" d="M105.5823-14.0356c7.5954,0,13.7747,6.1793,13.7747,13.7747v139.4505c0,7.5954-6.1793,13.7747-13.7747,13.7747H-33.8682c-7.5954,0-13.7747-6.1793-13.7747-13.7747V-.2608c0-7.5954,6.1793-13.7747,13.7747-13.7747H105.5823M105.5823-17.0356H-33.8682c-9.2644,0-16.7747,7.5103-16.7747,16.7747v139.4505c0,9.2644,7.5103,16.7747,16.7747,16.7747H105.5823c9.2644,0,16.7747-7.5103,16.7747-16.7747V-.2608c0-9.2644-7.5103-16.7747-16.7747-16.7747h0Z"/>
  </g>
  <g>
    <rect class="st12" x="-49.1431" y="-30.5356" width="170.0005" height="170.0005" rx="15.2749" ry="15.2749"/>
    <path class="st14" d="M105.5823-29.0356c7.5954,0,13.7747,6.1793,13.7747,13.7747V124.1897c0,7.5954-6.1793,13.7747-13.7747,13.7747H-33.8682c-7.5954,0-13.7747-6.1793-13.7747-13.7747V-15.2608c0-7.5954,6.1793-13.7747,13.7747-13.7747H105.5823M105.5823-32.0356H-33.8682c-9.2644,0-16.7747,7.5103-16.7747,16.7747V124.1897c0,9.2644,7.5103,16.7747,16.7747,16.7747H105.5823c9.2644,0,16.7747-7.5103,16.7747-16.7747V-15.2608c0-9.2644-7.5103-16.7747-16.7747-16.7747h0Z"/>
  </g>
  <path class="st3" d="M120.357,50.5701c-33,0-23-63.6057-51-77.6057"/>
  <path class="st11" d="M-24.8657,114.2794l15.1763,5.6209c15.5907,5.7743,32.7188,5.8626,48.3682.2492l57.0785-20.4738c7.9885-2.8654,7.709-14.258-.4103-16.7283l-38.6087-11.7467-81.3089,26.8041c-7.7474,2.554-7.9448,13.4414-.2951,16.2746Z"/>
  <g>
    <path class="st1" d="M86.4588-7.288"/>
    <path class="st6" d="M86.4588-7.288"/>
    <path class="st0" d="M-19.8198,12.7605l.1063,91.9589h0c.3582,1.9269,1.6511,3.6926,3.8844,4.4471l5.4184,1.8304c12.8604,4.3445,26.7969,4.3122,39.637-.0923l61.6969-21.1631c2.3226-.7966,3.7275-2.5705,4.2255-4.5526l.2084-.0354V-8.2841L-19.8198,12.7605Z"/>
    <path class="st2" d="M-19.8198,13.1745v26.7861l.1063-.0181c.3582,1.9269,1.6511,3.6926,3.8844,4.4471l5.4184,1.8304c12.8604,4.3445,26.7969,4.3122,39.637-.0923l61.6969-21.1631c2.3226-.7966,3.7275-2.5705,4.2255-4.5526l.2084-.0354V-7.8702L-19.8198,13.1745Z"/>
    <g>
      <g>
        <path class="st4" d="M48.7216-7.2003c12.2246-4.1932,25.4931-4.2241,37.7372-.0878l4.4366,1.4987c1.1969.4044,2.1488,1.0709,2.8644,1.8899,2.8429-3.2519,1.8859-8.9422-2.8644-10.5468l-4.4366-1.4989c-12.2441-4.1364-25.5126-4.1054-37.7372.0878L-15.8538,6.2931c-4.4625,1.5306-5.1541,7.0907-2.0922,9.8797.5682-.5171,1.2654-.9391,2.0922-1.2227L48.7216-7.2003Z"/>
        <path class="st9" d="M-10.4096,19.2355c12.8605,4.3445,26.7969,4.3122,39.6371-.0923L90.9243-2.0198c1.1836-.406,2.126-1.0681,2.8355-1.8796-.7156-.8189-1.6676-1.4855-2.8644-1.8899l-4.4366-1.4987c-12.2441-4.1364-25.5126-4.1054-37.7372.0878L-15.8538,14.9501c-.8268.2836-1.5241.7057-2.0922,1.2227.5743.5231,1.2798.9491,2.1181,1.2323l5.4183,1.8304Z"/>
      </g>
      <path class="st7" d="M-15.8292,17.405l5.4184,1.8305c12.8605,4.3446,26.797,4.3121,39.6371-.0922L90.9231-2.0197c5.9264-2.0328,5.9069-10.4213-.0289-12.4266l-4.4366-1.4988c-12.244-4.1363-25.5126-4.1054-37.7372.0878L-15.855,6.2931c-5.2994,1.8178-5.282,9.3188.0259,11.1119Z"/>
    </g>
    <line class="st8" x1="-10.2219" y1="30.3949" x2="-10.2219" y2="100.3653"/>
    <polygon class="st5" points=".2851 14.5593 9.8375 17.7863 15.8684 -23.6907 6.3952 -26.3472 .2851 14.5593"/>
    <polygon class="st5" points="61.7282 -4.4268 71.2807 -1.1997 63.5377 -40.5212 54.0645 -43.1777 61.7282 -4.4268"/>
    <path class="st10" d="M52.2257-31.9013c-.4552.8379,5.5815,3.5792,14.2654,3.1911"/>
    <path class="st1" d="M87.0815-5.5889"/>
  </g>
  <path class="st3" d="M.357-.0356C-15.643,55.9644-48.643,50.5701-48.643,50.5701"/>
  <path class="st10" d="M2.0992-1.1997s7.2805-1.0791,13.7692-8.4575"/>
  <path class="st10" d="M-.643-3.0356s-2.5157-6.4414,2.7421-10.2207"/>
</svg>